<svg width="40" height="45" viewBox="0 0 40 45" fill="none" xmlns="http://www.w3.org/2000/svg">
<path d="M20 0.858521C22.6522 0.858521 25.1957 2.01045 27.0711 4.06088C28.9464 6.11132 30 8.89232 30 11.7921C30 14.6918 28.9464 17.4728 27.0711 19.5233C25.1957 21.5737 22.6522 22.7256 20 22.7256C17.3478 22.7256 14.8043 21.5737 12.9289 19.5233C11.0536 17.4728 10 14.6918 10 11.7921C10 8.89232 11.0536 6.11132 12.9289 4.06088C14.8043 2.01045 17.3478 0.858521 20 0.858521ZM20 28.1924C31.05 28.1924 40 33.0852 40 39.126V44.5928H0V39.126C0 33.0852 8.95 28.1924 20 28.1924Z" fill="#F8F8F8"/>
</svg>
