<svg width="40" height="45" viewBox="0 0 40 45" fill="none" xmlns="http://www.w3.org/2000/svg">
<path d="M40 36.0082V38.0908H0V36.0082L4.44444 31.843V19.3476C4.44444 12.8915 8.95556 7.2061 15.5556 5.37342V4.76947C15.5556 3.6648 16.0238 2.60538 16.8573 1.82426C17.6908 1.04314 18.8213 0.604309 20 0.604309C21.1787 0.604309 22.3092 1.04314 23.1427 1.82426C23.9762 2.60538 24.4444 3.6648 24.4444 4.76947V5.37342C31.0444 7.2061 35.5556 12.8915 35.5556 19.3476V31.843L40 36.0082ZM24.4444 40.1734C24.4444 41.278 23.9762 42.3375 23.1427 43.1186C22.3092 43.8997 21.1787 44.3385 20 44.3385C18.8213 44.3385 17.6908 43.8997 16.8573 43.1186C16.0238 42.3375 15.5556 41.278 15.5556 40.1734" fill="#F8F8F8"/>
</svg>
